<?xml version="1.0" encoding="utf-8"?>
<!-- Generator: Adobe Illustrator 23.0.3, SVG Export Plug-In . SVG Version: 6.00 Build 0)  -->
<svg version="1.1" id="emoji" xmlns="http://www.w3.org/2000/svg" xmlns:xlink="http://www.w3.org/1999/xlink" x="0px" y="0px"
	 viewBox="0 0 72 72" style="enable-background:new 0 0 72 72;" xml:space="preserve">
<style type="text/css">
	.st0{fill:#F8CC8D;}
	.st1{fill:#E88D4E;}
	.st2{fill:none;stroke:#000000;stroke-width:0.75;stroke-linecap:round;stroke-linejoin:round;stroke-miterlimit:10;}
</style>
<g id="color">
	<rect x="6" y="7.8" class="st0" width="59.9" height="58.5"/>
	<polyline class="st1" points="7.4,64 0.3,64.3 0.3,71.6 71.6,71.6 71.6,61.5 64.5,61.7 	"/>
	<polyline class="st1" points="64.5,7.8 71.6,7.6 71.6,0.3 0.3,0.3 0.3,10.4 7.4,10.1 	"/>
</g>
<g id="hair">
</g>
<g id="skin">
</g>
<g id="skin-shadow">
</g>
<g id="line">
	<polyline class="st2" points="7.4,64 0.3,64.3 0.3,71.6 71.6,71.6 71.6,61.5 64.5,61.7 	"/>
	<polyline class="st2" points="64.5,7.8 71.6,7.6 71.6,0.3 0.3,0.3 0.3,10.4 7.4,10.1 	"/>
	<polyline class="st2" points="64.5,7.8 33.9,9 7.4,10.1 	"/>
	<line class="st2" x1="7.4" y1="64" x2="64.5" y2="61.7"/>
	<line class="st2" x1="7.4" y1="16" x2="7.4" y2="56"/>
	<line class="st2" x1="64.5" y1="16" x2="64.5" y2="56"/>
</g>
</svg>
